<svg xmlns="http://www.w3.org/2000/svg" viewBox="0 0 315.1 140.1" fill="#111c4e"><path d="M25.7 103.4c0 7.6-4.9 12.6-12.6 12.6S.5 111 .5 103.4v-28c0-7.6 4.9-12.6 12.6-12.6s12.6 5 12.6 12.6v2.7h-9.2v-2.8c.1-1.7-1.1-3.3-2.9-3.4H13c-1.7-.1-3.3 1.1-3.4 2.9v.5 28c-.1 1.7 1.1 3.3 2.9 3.4h.5c1.7.1 3.3-1.1 3.4-2.9v-.5-2.7h9.2c0 0 .1 2.8.1 2.8zm35.8 11.5H52l-1.2-8H43l-1.2 8h-9.4l9.7-51h10l9.4 51zm-12-17.2L47 80.4l-2.7 17.3h5.2zm21.3 17.2v-51H80v51h-9.2zm47.7-30.3c.1 3.4-1.1 6.7-3.5 9.2 2.2 1.5 3.6 4.1 3.5 6.8v14.3h-9.2v-14.3c.2-1.7-1.1-3.2-2.9-3.4h-.5-3.4v17.7h-9.2v-51H106c7.7 0 12.6 5 12.6 12.6l-.1 8.1h0zm-9.2-8.1c.2-1.7-1.1-3.2-2.9-3.4h-.5-3.4v15h3.4c1.7.2 3.2-1.1 3.4-2.9v-.5-8.2zm46.3-12.7v51h-6.8l-9.2-26.1v26.1H131v-51h6.8L147 90V63.8h8.6zm12.5 39.6v-28c0-7.6 4.9-12.6 12.6-12.6s12.6 5 12.6 12.6v2.7h-9.2v-2.8a3.37 3.37 0 1 0-6.8 0v28a3.37 3.37 0 1 0 6.8 0h0v-4.8h-4.3v-9.2h13.5v14c0 7.6-4.9 12.6-12.6 12.6s-12.6-5-12.6-12.5zm36.4 0v-28c0-7.6 4.9-12.6 12.6-12.6s12.6 5 12.6 12.6v28c0 7.6-4.9 12.6-12.6 12.6s-12.6-5.1-12.6-12.6zm16 0v-28a3.37 3.37 0 1 0-6.8 0v28c0 1.9 1.5 3.4 3.3 3.4h.1a3.37 3.37 0 0 0 3.4-3.4h0zm46.9-18.8c.1 3.4-1.1 6.7-3.5 9.2 2.2 1.5 3.6 4.1 3.5 6.8v14.3h-9.2v-14.3c.1-1.7-1.1-3.3-2.9-3.4h-.5-3.4v17.7h-9.2v-51h12.6c7.7 0 12.6 5 12.6 12.6v8.1zm-9.1-8.1c.1-1.7-1.1-3.3-2.9-3.4h-.5-3.4v15h3.4c1.7.1 3.3-1.1 3.4-2.9v-.5-8.2zM315 63.8v51h-8.5V93l-6.1 21.8h-5.9L288.4 93v21.8h-8.5v-51h8.2l9.4 35.5 9.4-35.5h8.1zM72.6 124.1v15.6h-2.3v-7.9l-2.2 7.9h-1.6l-2.1-7.9v7.9h-2.3v-15.6h2.2l3 11.4 3-11.4c0 0 2.3 0 2.3 0zm5.2 12.1v-8.6a3.8 3.8 0 0 1 7.6 0v8.6a3.8 3.8 0 0 1-7.6 0h0zm5.1 0v-8.6c.1-.7-.5-1.3-1.2-1.4h-.2c-.7 0-1.3.5-1.4 1.2v.2 8.6c-.1.7.4 1.3 1.1 1.4h.2c.7 0 1.3-.5 1.4-1.2.1-.1.1-.1.1-.2zm15.1 0a3.8 3.8 0 0 1-7.6 0v-12.1h2.4v12.1c-.1.8.5 1.4 1.2 1.5.8.1 1.4-.5 1.5-1.2v-.2-12.1H98v12h0zm12.8-12.1v15.6h-1.9l-3.3-9.1v9.1h-2.3v-15.6h1.8l3.3 9.1v-9.1h2.4zm6.4 2.4h-2.4v-2.4h7.2v2.4h-2.4v13.2h-2.4c0 0 0-13.2 0-13.2zm16 13.2h-2.5l-.4-2.6h-2.9l-.5 2.6h-2.5l3.1-15.6h2.6l3.1 15.6h0zm-3.3-5.1l-1-6.2-1.1 6.2h2.1zm7.5 5.1v-15.6h2.4v15.6h-2.4z"/><path d="M152.6 124.1v15.6h-1.9l-3.3-9.1v9.1h-2.3v-15.6h1.9l3.3 9.1v-9.1h2.3zm11.8 12.1v-.8h2.4v.8c-.1.8.5 1.4 1.2 1.5.8.1 1.4-.5 1.5-1.2v-.2-1.5c.1-.7-.4-1.3-1.2-1.4h-.2c-2 .1-3.7-1.4-3.8-3.4v-.5-1.8a3.8 3.8 0 1 1 7.6 0v.7h-2.4v-.7c.1-.8-.5-1.4-1.2-1.5-.8-.1-1.4.5-1.5 1.2v.2 1.8c-.1.7.5 1.3 1.2 1.4h.2c2-.1 3.7 1.4 3.8 3.4v.5 1.5a3.8 3.8 0 1 1-7.6 0h0zm19.8 0a3.8 3.8 0 1 1-7.6 0v-8.6a3.8 3.8 0 1 1 7.6 0v.7h-2.4v-.7c.1-.7-.5-1.3-1.2-1.4h-.2c-.7 0-1.3.5-1.4 1.2v.2 8.6c-.1.7.4 1.3 1.1 1.4h.2c.7 0 1.3-.5 1.4-1.2v-.2-.8h2.4l.1.8h0zm4.3 0v-8.6c-.1-2.1 1.5-3.9 3.6-4s3.9 1.5 4 3.6v.4 8.6c.1 2.1-1.5 3.9-3.6 4s-3.9-1.5-4-3.6v-.4h0zm5.2 0v-8.6c.1-.8-.5-1.4-1.2-1.5-.8-.1-1.4.5-1.5 1.2v.2 8.6c-.1.8.5 1.4 1.2 1.5.8.1 1.4-.5 1.5-1.2v-.2h0zm8.6-9.7h-2.4v-2.4h7.2v2.4h-2.4v13.2h-2.4v-13.2h0zm11.4 10.8h3.5v2.4h-6v-15.6h2.4l.1 13.2zm15.1 2.4h-2.5l-.4-2.6H223l-.5 2.6H220l3.1-15.6h2.6l3.1 15.6zm-3.3-5.1l-1.1-6.2-1.1 6.2h2.2 0zm14.9-10.5v15.6h-1.9l-3.3-9.1v9.1H233v-15.6h1.9l3.3 9.1v-9.1h2.2 0zm5.4 0h3.8c2-.1 3.7 1.4 3.8 3.4v.5 7.9c.1 2-1.4 3.7-3.3 3.8h-.5-3.8v-15.6zm3.8 13.2c.7 0 1.3-.5 1.4-1.2v-.2-7.9c.1-.7-.5-1.3-1.2-1.4h-.2-1.3v10.7h1.3zm13.7-6.8h51.8v2h-51.8v-2zm-262.8 0h51.8v2H.5v-2zm275-81c-13.1-.9-26.2-2.6-39.3-3.9a329.59 329.59 0 0 0-19.8-1.5c-3.3-.2-6.6-.2-10-.3l-5 .1c-1.7 0-3.3 0-5 .2-3.3.2-6.6.4-9.9.9l-5 .6c-1.6.2-3.3.5-4.9.8-6.5 1.2-12.9 2.8-19.4 4.1-6.4 1.4-12.8 2.2-19.3 2.3-5.9 0-11.9-.4-17.8-1.1l4.6-1.2c4.3-1.2 8.6-2.3 12.9-3.2a150.82 150.82 0 0 1 13.2-2.1c4.4-.5 8.9-.8 13.3-1.3 4.5-.4 8.9-1.4 13.1-2.7 4.3-1.5 8.3-3.6 11.9-6.3 1.8-1.3 3.5-2.8 5.2-4.3s3.2-3.1 4.9-4.6c1.6-1.5 3.3-2.8 5.2-4 1.9-1.1 3.9-2 6-2.6 4.2-1.2 8.7-1.6 13.1-2 4.5-.3 8.9-1.1 13.2-2.5 8.5-2.9 16-8.1 24.5-10.5 8.6-2.4 17.8-1.1 25.4 3.7 3.8 2.4 7.1 5.3 10.6 8.1s7.3 5.3 11.7 6.4l.1-.5c-2.1-.8-4-1.8-5.8-3.2-1.8-1.3-3.4-2.6-5-4.1-3.2-3.2-6.7-6.1-10.3-8.9-4-2.7-8.5-4.6-13.2-5.5-2.4-.5-4.8-.7-7.2-.6s-4.9.4-7.2 1c-4.5 1.2-8.9 2.8-13.1 4.9-3.9 1.9-7.8 3.6-11.9 5-1.9.6-3.9 1.1-5.9 1.4s-4.1.5-6.3.7c-4.4.4-9.1.7-14 2.1-2.5.7-4.9 1.8-7.1 3.2-4.2 2.7-7.5 6.4-11.2 9.7a21.49 21.49 0 0 1-4.1 3.2c-1.7.9-3.5 1.6-5.4 1.9-8.7 1.8-17.8-.3-26.1-2.6-5.9-1.5-11.6-4-16.8-7.3-6.3-4.3-11.8-10.7-19.5-12.4-2.3-.5-4.7-.6-7-.4-2.4.2-4.7.6-7 1.1-4.4.9-8.6 1.8-12.5 2.2-1.8.2-3.7.3-5.5.1-.9.1-1.9-.1-2.9-.3s-1.9-.5-2.9-.8c-3.8-1.2-7.8-2.8-12.2-4.3-2.2-.8-4.5-1.4-6.9-1.9a44.29 44.29 0 0 0-7.2-.9c-4.6-.1-9.2.1-13.8.9-2.2.4-4.3.8-6.5 1.1l-6.2.8c-2.1.2-4.1.2-6.2.1s-4.3-.2-6.4-.5C11.4 7.4 7 6.9 2.6 6.2l-.1.5c4.2 1.4 8.4 2.5 12.7 3.4 2.2.5 4.3.9 6.5 1.2s4.4.5 6.6.5c8.9-.1 17.5-2.3 26.2-1.5 4.3.4 8.6 1.3 12.7 2.8s8.2 3.2 12.4 4.4c2.1.6 4.3 1.1 6.5 1.4 2.2.2 4.5.1 6.7-.2 4.4-.6 8.7-1.7 13-2.6 2.9-.7 5.9-1.2 8.9-1.4 2.9 0 5.7.8 8.2 2.2 3.2 1.7 6 4 9 6 7 4.6 14.8 7.9 23 9.8 8.1 1.9 16.8 3.6 25.1 2l2.5-.6c-2.2 1.4-4.4 2.5-6.8 3.3-1.9.7-3.9 1.3-5.9 1.7a69.82 69.82 0 0 1-6.3 1.2c-4.3.7-8.7 1.1-13.2 1.8s-8.9 1.7-13.3 2.8-8.7 2.5-12.9 4c-2.1.7-4.2 1.5-6.3 2.1l-.9.3c-12.6-1.6-25.3-3.2-38-4.1-13.2-1-26.4-1.5-39.6-1.3-13.1.3-26.2 1.4-39.3 3.3l9.8-.8 9.9-.6c6.6-.2 13.2-.4 19.8-.3 13.2.1 26.3.9 39.4 2.2s26.1 3 39.1 4.8c6.6.9 13.3 1.4 20 1.4 6.7-.2 13.3-.9 19.9-2.3 6.5-1.3 12.9-2.9 19.3-4.2 1.6-.3 3.2-.6 4.8-.8l4.9-.6c3.2-.5 6.5-.6 9.8-.9 13-.9 26.2 0 39.3 1l39.5 3.1c13.2.7 26.5.4 39.5-1.9-13.1 1.3-26.4 1.4-39.5.2h0z"/></svg>